<?xml version="1.0" encoding="utf-8"?>
<!-- Generator: Adobe Illustrator 24.1.2, SVG Export Plug-In . SVG Version: 6.00 Build 0)  -->
<svg version="1.1" xmlns="http://www.w3.org/2000/svg" xmlns:xlink="http://www.w3.org/1999/xlink" x="0px" y="0px"
	 viewBox="0 0 1366 768" style="enable-background:new 0 0 1366 768;" xml:space="preserve">
<style type="text/css">
	.st0{fill:#EFFF23;stroke:#FFA624;stroke-width:9;stroke-miterlimit:10;}
	.st1{fill:#FF5F27;stroke:#DD7C12;stroke-width:9;stroke-miterlimit:10;}
	.st2{fill:url(#SVGID_1_);stroke:#DD7C12;stroke-width:9;stroke-miterlimit:10;}
	.st3{fill:#0FFFFF;}
	.st4{fill:#FFFFFF;}
</style>
<g id="图层_5">
	<path class="st0" d="M595.5,303.5c8.98-13.98-37.26-23.84-13.57-85.54c0.37-0.97,0.68-1.97,0.92-2.98
		c45.28-193.81,401.74-77.13,193.57,154.77C896.12,485.96,1054.5,250.5,1070.5,321.5C1212.83,953.1,265.65,816.79,595.5,303.5z"/>
</g>
<g id="图层_6">
	<path class="st1" d="M506.5,303.5c-1.78-38.01,97.02-46.41,98-48C630.5,303.5,508.57,347.68,506.5,303.5z"/>
</g>
<g id="图层_3">
	<linearGradient id="SVGID_1_" gradientUnits="userSpaceOnUse" x1="490.0689" y1="258.2302" x2="612.6979" y2="258.2302">
		<stop  offset="0" style="stop-color:#2E1F16"/>
		<stop  offset="0" style="stop-color:#251912"/>
		<stop  offset="0" style="stop-color:#140E0A"/>
		<stop  offset="0" style="stop-color:#090604"/>
		<stop  offset="0" style="stop-color:#020101"/>
		<stop  offset="0" style="stop-color:#000000"/>
		<stop  offset="5.586592e-03" style="stop-color:#FFFFFF"/>
		<stop  offset="0.0419" style="stop-color:#FF7848"/>
		<stop  offset="0.2598" style="stop-color:#FF5F27"/>
		<stop  offset="1" style="stop-color:#FFA624"/>
	</linearGradient>
	<path class="st2" d="M579,303c-15.4-2.74-77.7,1-88.26-71c-6.82-46.54,39.64,10.5,83-13.73c13.88-7.76,23.7-0.38,32.26,16.73
		C623,269,605.31,307.69,579,303z"/>
</g>
<g id="图层_4">
	<g>
		<path class="st3" d="M705.51,250.11c1.69-4.88,1.23-10.4-1.58-15.07c-3.22-5.36-9.12-8.7-15.38-8.7c-3.24,0-6.43,0.89-9.22,2.56
			c-4.67,2.81-7.67,7.46-8.47,12.56c-1.98-4.52-2.41-9.54-1.19-14.41c1.45-5.83,5.09-10.75,10.24-13.84c3.5-2.1,7.5-3.22,11.56-3.22
			c7.98,0,15.2,4.08,19.31,10.92c3.09,5.15,4,11.2,2.54,17.03C712.12,242.81,709.38,247.04,705.51,250.11z"/>
		<path d="M691.48,212c7.28,0,13.85,3.72,17.6,9.95c2.82,4.69,3.64,10.2,2.32,15.52c-0.59,2.36-1.57,4.56-2.89,6.52
			c-0.05-3.43-0.98-6.87-2.85-9.98c-3.58-5.96-10.13-9.67-17.09-9.67c-3.6,0-7.15,0.98-10.25,2.85c-3.11,1.87-5.55,4.47-7.2,7.47
			c-0.25-2.35-0.08-4.75,0.51-7.12c1.32-5.31,4.64-9.79,9.33-12.61C684.13,213.01,687.78,212,691.48,212 M691.48,208
			c-4.3,0-8.65,1.13-12.6,3.5c-11.6,6.97-15.35,22.02-8.38,33.62c0.84,1.4,1.81,2.69,2.87,3.85c-2.12-6.84,0.58-14.5,7-18.36
			c2.57-1.54,5.4-2.28,8.19-2.28c5.41,0,10.68,2.75,13.67,7.73c3.86,6.42,2.65,14.45-2.44,19.49c1.48-0.53,2.94-1.21,4.34-2.06
			c11.6-6.97,15.35-22.02,8.38-33.62C707.91,212.23,699.79,208,691.48,208L691.48,208z"/>
	</g>
	<g>
		<path d="M691.52,255c-6.2,0-12.14-2.56-16.37-7.04c-1.67-6.02,0.86-12.4,6.24-15.63c2.17-1.3,4.64-1.99,7.16-1.99
			c4.94,0,9.41,2.53,11.95,6.76c3.23,5.38,2.47,12.2-1.83,16.73C696.37,254.6,693.96,255,691.52,255
			C691.52,255,691.52,255,691.52,255z"/>
		<path d="M688.55,232.34c4.23,0,8.06,2.16,10.24,5.79c2.68,4.47,2.15,10.08-1.23,13.96c-1.95,0.61-3.98,0.91-6.03,0.91
			c-5.48,0-10.74-2.19-14.56-6.05c-1.17-5.01,1-10.22,5.46-12.9C684.28,232.93,686.4,232.34,688.55,232.34 M688.55,228.34
			c-2.79,0-5.62,0.73-8.19,2.28c-6.42,3.86-9.12,11.51-7,18.36c4.71,5.2,11.36,8.02,18.15,8.02c2.77,0,5.56-0.47,8.25-1.44
			c5.09-5.05,6.3-13.08,2.44-19.49C699.23,231.09,693.96,228.34,688.55,228.34L688.55,228.34z"/>
	</g>
	<g>
		<circle class="st4" cx="689" cy="243" r="7.5"/>
		<path d="M689,236c3.86,0,7,3.14,7,7s-3.14,7-7,7s-7-3.14-7-7S685.14,236,689,236 M689,235c-4.42,0-8,3.58-8,8s3.58,8,8,8
			s8-3.58,8-8S693.42,235,689,235L689,235z"/>
	</g>
</g>
</svg>
