<?xml version="1.0" encoding="utf-8"?>
<!-- Generator: Adobe Illustrator 24.1.2, SVG Export Plug-In . SVG Version: 6.00 Build 0)  -->
<svg version="1.1" xmlns="http://www.w3.org/2000/svg" xmlns:xlink="http://www.w3.org/1999/xlink" x="0px" y="0px"
	 viewBox="0 0 28 28" style="enable-background:new 0 0 28 28;" xml:space="preserve">
<style type="text/css">
	.st0{fill:#6B6A6A;stroke:#705055;stroke-width:0.25;stroke-miterlimit:10;}
	.st1{fill:#6B6A6A;}
	.st2{fill:#B7656F;stroke:#705055;stroke-width:0.25;stroke-miterlimit:10;}
	.st3{fill:#B7656F;}
	.st4{fill:#705055;}
	.st5{fill:#FFFFFF;}
	.st6{fill:#565555;}
	.st7{fill:#F43C0B;stroke:#3F150C;stroke-width:0.25;stroke-miterlimit:10;}
	.st8{fill:#EF608C;stroke:#8E3F5B;stroke-width:0.25;stroke-miterlimit:10;}
	.st9{fill:#F43C0B;}
	.st10{fill:#821220;stroke:#260802;stroke-width:0.25;stroke-miterlimit:10;}
</style>
<g id="图层_2">
	<path class="st0" d="M7.5,21.7l0.3,0.7c0.2,0.6,0.8,1,1.6,1h9.8c0.7,0,1.3-0.4,1.6-1l0.3-0.7c0.4-1-0.4-2-1.6-2H9
		C7.9,19.6,7.1,20.7,7.5,21.7z"/>
	<g>
		<path class="st1" d="M14.5,24.4c-0.2,0-0.3-0.1-0.4-0.2c-0.1-0.2,0-0.5,0.2-0.7L22.7,13c0.2-0.3,0.5-0.4,0.8-0.5l0,0
			c1,0,1.8,0.3,2.4,0.8c0.6,0.5,0.8,1.3,0.8,2.2v0.6c0,0.3-0.2,0.6-0.5,0.8L15,24.2C14.8,24.3,14.6,24.4,14.5,24.4z"/>
		<path class="st1" d="M23.6,12.7c0.9,0,1.6,0.3,2.1,0.8c0.5,0.5,0.8,1.2,0.8,2.1v0.6c0,0.2-0.2,0.5-0.5,0.7l-7,4.6L14.9,24
			c-0.2,0.1-0.3,0.2-0.4,0.2c-0.1,0-0.2,0-0.2-0.1c-0.1-0.1,0-0.3,0.2-0.5l3.1-3.9l5.3-6.6c0.2-0.2,0.5-0.4,0.7-0.4L23.6,12.7
			 M23.6,12.3c0,0-0.1,0-0.1,0c-0.3,0-0.7,0.2-0.9,0.5l-5.3,6.6l-3.1,3.9c-0.5,0.6-0.2,1.2,0.3,1.2c0.2,0,0.4-0.1,0.6-0.2l4.2-2.7
			l7-4.6c0.4-0.2,0.6-0.6,0.6-1v-0.6C26.9,13.6,25.6,12.3,23.6,12.3L23.6,12.3z"/>
	</g>
	<g>
		<path class="st1" d="M14.8,24.1c-0.2,0-0.4-0.1-0.5-0.3c-0.2-0.2-0.2-0.5-0.1-0.7L17.5,9c0.1-0.4,0.3-0.7,0.7-0.7
			c0.5-0.2,1-0.3,1.6-0.3c1.7,0,3.2,0.9,4,2.4l0.4,0.6c0.2,0.3,0.1,0.7-0.1,1.1l-8.5,11.6C15.3,24,15.1,24.1,14.8,24.1z"/>
		<path class="st1" d="M19.8,8.1L19.8,8.1c1.6,0,3.1,0.8,3.9,2.3l0.4,0.6c0.1,0.3,0.1,0.6-0.1,0.9l-5.3,7.3l-3.2,4.4
			c-0.2,0.2-0.4,0.3-0.5,0.3c-0.2,0-0.3-0.1-0.4-0.2c-0.1-0.2-0.2-0.4-0.1-0.6l1.2-5.3L17.7,9c0.1-0.3,0.3-0.6,0.5-0.6
			C18.7,8.2,19.3,8.1,19.8,8.1 M19.8,7.8c-0.5,0-1.1,0.1-1.6,0.3l0,0c-0.4,0.1-0.7,0.5-0.8,0.9l-2.1,8.9L14,23.1
			c-0.2,0.7,0.3,1.2,0.8,1.2c0.3,0,0.6-0.1,0.8-0.5l3.2-4.4l5.3-7.3c0.3-0.4,0.3-0.9,0.1-1.2l-0.4-0.6C23,8.7,21.5,7.8,19.8,7.8
			L19.8,7.8z"/>
	</g>
	<g>
		<path class="st1" d="M13.9,24.7c-0.2,0-0.3-0.1-0.5-0.2l-3.9-2.4c-0.1,0-0.1-0.1-0.2-0.1l-6.7-3.3c-0.6-0.3-1-0.8-1.1-1.4
			c-0.1-0.6-0.2-1.3-0.2-1.4c0.1-2.2,1.5-3.9,3.6-4.1l0.7-0.1c0.4,0,0.7,0.2,0.9,0.5l7.8,11.6c0.2,0.3,0.2,0.6,0.1,0.8
			C14.3,24.6,14.1,24.7,13.9,24.7z"/>
		<path class="st1" d="M5.7,11.7c0.3,0,0.5,0.2,0.7,0.4l4.9,7.2l2.9,4.3c0.2,0.2,0.2,0.5,0.1,0.6c-0.1,0.1-0.2,0.2-0.4,0.2
			c-0.1,0-0.3-0.1-0.4-0.2l-3.9-2.4c-0.1,0-0.1-0.1-0.2-0.1l-6.7-3.3c-0.5-0.3-0.9-0.7-1-1.3c-0.1-0.7-0.2-1.3-0.2-1.4
			c0.1-2.1,1.4-3.7,3.5-4L5.7,11.7C5.6,11.7,5.7,11.7,5.7,11.7 M5.7,11.4c0,0-0.1,0-0.1,0l-0.7,0.1c-2.2,0.3-3.7,2-3.8,4.3
			c0,0.2,0.1,0.9,0.2,1.5c0.1,0.7,0.6,1.2,1.2,1.5l6.7,3.3c0.1,0,0.1,0.1,0.2,0.1l3.9,2.4c0.2,0.1,0.4,0.2,0.6,0.2
			c0.6,0,1-0.7,0.5-1.3l-2.9-4.3l-4.9-7.2C6.4,11.6,6,11.4,5.7,11.4L5.7,11.4z"/>
	</g>
	<g>
		<path class="st1" d="M13.6,24.1c-0.2,0-0.5-0.2-0.7-0.4l-3.4-4c-0.1-0.1-0.1-0.1-0.2-0.2l-4.3-4.3c-0.2-0.2-0.4-0.6-0.5-0.9
			c-0.1-0.3-0.2-0.7-0.4-0.9c-0.6-0.8-0.6-1.6-0.4-2.1c0.1-0.3,0.4-0.4,0.3-0.6c0.6-1.7,2-2.7,3.7-2.7c0.3,0,0.7,0,1,0.1l0.7,0.2
			c0.3,0.1,0.6,0.4,0.7,0.8l3.9,14.2c0.1,0.3,0.1,0.6-0.1,0.8C13.9,24,13.8,24.1,13.6,24.1z"/>
		<path class="st1" d="M7.8,8L7.8,8c0.3,0,0.7,0,1,0.1l0.7,0.2c0.3,0.1,0.5,0.4,0.6,0.7l2.4,8.9l1.4,5.3c0.1,0.3,0.1,0.5-0.1,0.6
			c-0.1,0.1-0.2,0.1-0.3,0.1c-0.2,0-0.4-0.1-0.6-0.4l-3.4-4c-0.1-0.1-0.1-0.1-0.2-0.2l-4.3-4.3c-0.2-0.2-0.3-0.5-0.4-0.9
			c-0.1-0.3-0.2-0.7-0.5-1c-0.6-0.7-0.3-1.4-0.1-1.9c0.1-0.3,0.2-0.5,0.1-0.7C4.9,8.9,6.2,8,7.8,8 M7.8,7.6c-1.8,0-3.2,1.1-3.8,2.9
			C4.3,10.8,3,12.1,4,13.4c0.4,0.6,0.4,1.4,0.9,1.9l4.3,4.3c0.1,0.1,0.1,0.1,0.2,0.2l3.4,4c0.2,0.3,0.5,0.5,0.8,0.5
			c0.5,0,0.8-0.5,0.6-1.2l-1.4-5.3l-2.4-8.9C10.2,8.4,9.9,8,9.5,7.9L8.9,7.8C8.5,7.7,8.1,7.6,7.8,7.6L7.8,7.6z"/>
	</g>
	<g>
		<path class="st1" d="M14.1,24.5c-0.4,0-0.8-0.2-1-0.8L9.2,8.3c-0.1-0.4,0-0.9,0.3-1.1c1.1-1.1,2.5-1.7,3.9-1.7
			c1.1,0,2.1,0.3,3,0.9l0.7,0.5c0.4,0.2,0.5,0.7,0.5,1.2l-2.6,15.6C15,24.3,14.5,24.5,14.1,24.5z"/>
		<path class="st1" d="M13.5,5.6c1,0,2.1,0.3,3,0.9L17.1,7c0.3,0.2,0.5,0.6,0.4,1l-1.7,10.2l-0.9,5.4c-0.1,0.6-0.5,0.7-0.9,0.7
			c-0.3,0-0.7-0.2-0.8-0.7l-1.3-5.4L9.4,8.2c-0.1-0.4,0-0.7,0.3-1C10.7,6.2,12.1,5.6,13.5,5.6 M13.5,5.3c-1.4,0-2.9,0.6-4,1.7
			C9.1,7.3,9,7.8,9.1,8.3l2.5,10.1l1.3,5.4c0.2,0.6,0.7,0.9,1.1,0.9c0.5,0,1.1-0.3,1.2-1l0.9-5.4l1.7-10.2c0.1-0.5-0.1-1.1-0.5-1.3
			l-0.7-0.5C15.6,5.6,14.5,5.3,13.5,5.3L13.5,5.3z"/>
	</g>
</g>
<g id="图层_1">
	<g id="图层_2_2_">
		<path class="st2" d="M7.8,21.1l0.3,0.7c0.2,0.6,0.8,1,1.6,1h9.8c0.7,0,1.3-0.4,1.6-1l0.3-0.7c0.4-1-0.4-2-1.6-2H9.4
			C8.2,19,7.4,20.1,7.8,21.1z"/>
	</g>
	<g id="图层_1_2_">
		<g>
			<path class="st3" d="M14.8,23.7c-0.2,0-0.3-0.1-0.4-0.2c-0.1-0.2,0-0.5,0.2-0.7L23,12.4c0.2-0.3,0.5-0.4,0.8-0.5l0,0
				c1,0,1.8,0.3,2.4,0.8c0.6,0.5,0.8,1.3,0.8,2.2v0.6c0,0.3-0.2,0.6-0.5,0.8l-11.2,7.3C15.1,23.7,15,23.7,14.8,23.7z"/>
			<path class="st4" d="M23.9,12.1c0.9,0,1.6,0.3,2.1,0.8c0.5,0.5,0.8,1.2,0.8,2.1v0.6c0,0.2-0.2,0.5-0.5,0.7l-7,4.6l-4.2,2.7
				c-0.2,0.1-0.3,0.2-0.4,0.2c-0.1,0-0.2,0-0.2-0.1c-0.1-0.1,0-0.3,0.2-0.5l3.1-3.9l5.3-6.6c0.2-0.2,0.5-0.4,0.7-0.4L23.9,12.1
				 M23.9,11.7c0,0-0.1,0-0.1,0c-0.3,0-0.7,0.2-0.9,0.5l-5.3,6.6l-3.1,3.9c-0.5,0.6-0.2,1.2,0.3,1.2c0.2,0,0.4-0.1,0.6-0.2l4.2-2.7
				l7-4.6c0.4-0.2,0.6-0.6,0.6-1v-0.6C27.2,13,25.9,11.7,23.9,11.7L23.9,11.7z"/>
		</g>
		<g>
			<path class="st3" d="M15.2,23.5c-0.2,0-0.4-0.1-0.5-0.3c-0.2-0.2-0.2-0.5-0.1-0.7l3.3-14.1c0.1-0.4,0.3-0.7,0.7-0.7
				c0.5-0.2,1-0.3,1.6-0.3c1.7,0,3.2,0.9,4,2.4l0.4,0.6c0.2,0.3,0.1,0.7-0.1,1.1l-8.5,11.6C15.6,23.3,15.4,23.5,15.2,23.5z"/>
			<path class="st4" d="M20.1,7.5L20.1,7.5c1.6,0,3.1,0.8,3.9,2.3l0.4,0.6c0.1,0.3,0.1,0.6-0.1,0.9l-5.3,7.3L15.7,23
				c-0.2,0.2-0.4,0.3-0.5,0.3c-0.2,0-0.3-0.1-0.4-0.2c-0.1-0.2-0.2-0.4-0.1-0.6l1.2-5.3L18,8.4c0.1-0.3,0.3-0.6,0.5-0.6
				C19.1,7.6,19.6,7.5,20.1,7.5 M20.1,7.2c-0.5,0-1.1,0.1-1.6,0.3l0,0c-0.4,0.1-0.7,0.5-0.8,0.9l-2.1,8.9l-1.2,5.3
				c-0.2,0.7,0.3,1.2,0.8,1.2c0.3,0,0.6-0.1,0.8-0.5l3.2-4.4l5.3-7.3c0.3-0.4,0.3-0.9,0.1-1.2l-0.4-0.6C23.3,8.1,21.8,7.2,20.1,7.2
				L20.1,7.2z"/>
		</g>
		<g>
			<path class="st3" d="M14.2,24.1c-0.2,0-0.3-0.1-0.5-0.2l-3.9-2.4c-0.1,0-0.1-0.1-0.2-0.1L2.9,18c-0.6-0.3-1-0.8-1.1-1.4
				c-0.1-0.6-0.2-1.3-0.2-1.4c0.1-2.2,1.5-3.9,3.6-4.1l0.7-0.1c0.4,0,0.7,0.2,0.9,0.5L14.6,23c0.2,0.3,0.2,0.6,0.1,0.8
				C14.6,24,14.4,24.1,14.2,24.1z"/>
			<path class="st4" d="M6,11.1c0.3,0,0.5,0.2,0.7,0.4l4.9,7.2l2.9,4.3c0.2,0.2,0.2,0.5,0.1,0.6c-0.1,0.1-0.2,0.2-0.4,0.2
				c-0.1,0-0.3-0.1-0.4-0.2l-3.9-2.4c-0.1,0-0.1-0.1-0.2-0.1L3,17.9c-0.5-0.3-0.9-0.7-1-1.3c-0.1-0.7-0.2-1.3-0.2-1.4
				c0.1-2.1,1.4-3.7,3.5-4L6,11.1C5.9,11.1,6,11.1,6,11.1 M6,10.8c0,0-0.1,0-0.1,0l-0.7,0.1c-2.2,0.3-3.7,2-3.8,4.3
				c0,0.2,0.1,0.9,0.2,1.5c0.1,0.7,0.6,1.2,1.2,1.5l6.7,3.3c0.1,0,0.1,0.1,0.2,0.1l3.9,2.4c0.2,0.1,0.4,0.2,0.6,0.2
				c0.6,0,1-0.7,0.5-1.3l-2.9-4.3L7,11.3C6.7,11,6.3,10.8,6,10.8L6,10.8z"/>
		</g>
		<g>
			<path class="st3" d="M13.9,23.5c-0.2,0-0.5-0.2-0.7-0.4l-3.4-4c-0.1-0.1-0.1-0.1-0.2-0.2l-4.3-4.3C5.1,14.3,5,14,4.9,13.7
				c-0.1-0.3-0.2-0.7-0.4-0.9c-0.6-0.8-0.6-1.6-0.4-2.1c0.1-0.3,0.4-0.4,0.3-0.6c0.6-1.7,2-2.7,3.7-2.7c0.3,0,0.7,0,1,0.1l0.7,0.2
				c0.3,0.1,0.6,0.4,0.7,0.8l3.9,14.2c0.1,0.3,0.1,0.6-0.1,0.8C14.2,23.4,14.1,23.5,13.9,23.5z"/>
			<path class="st4" d="M8.1,7.4L8.1,7.4c0.3,0,0.7,0,1,0.1l0.7,0.2c0.3,0.1,0.5,0.4,0.6,0.7l2.4,8.9l1.4,5.3
				c0.1,0.3,0.1,0.5-0.1,0.6c-0.1,0.1-0.2,0.1-0.3,0.1c-0.2,0-0.4-0.1-0.6-0.4l-3.4-4c-0.1-0.1-0.1-0.1-0.2-0.2l-4.3-4.3
				c-0.2-0.2-0.3-0.5-0.4-0.9c-0.1-0.3-0.2-0.7-0.5-1c-0.6-0.7-0.3-1.4-0.1-1.9c0.1-0.3,0.2-0.5,0.1-0.7C5.2,8.3,6.5,7.4,8.1,7.4
				 M8.1,7C6.3,7,4.9,8.1,4.2,10c0.3,0.3-0.9,1.5,0.1,2.8c0.4,0.6,0.4,1.4,0.9,1.9L9.5,19c0.1,0.1,0.1,0.1,0.2,0.2l3.4,4
				c0.2,0.3,0.5,0.5,0.8,0.5c0.5,0,0.8-0.5,0.6-1.2l-1.4-5.3l-2.4-8.9c-0.1-0.5-0.5-0.8-0.9-0.9L9.2,7.2C8.8,7.1,8.4,7,8.1,7L8.1,7z
				"/>
		</g>
		<g>
			<path class="st3" d="M14.4,23.9c-0.4,0-0.8-0.2-1-0.8L9.6,7.7c-0.1-0.4,0-0.9,0.3-1.1c1.1-1.1,2.5-1.7,3.9-1.7
				c1.1,0,2.1,0.3,3,0.9l0.7,0.5C17.9,6.5,18.1,7,18,7.4l-2.6,15.6C15.3,23.7,14.8,23.9,14.4,23.9z"/>
			<path class="st4" d="M13.8,5c1,0,2.1,0.3,3,0.9l0.7,0.5c0.3,0.2,0.5,0.6,0.4,1l-1.7,10.2L15.2,23c-0.1,0.6-0.5,0.7-0.9,0.7
				c-0.3,0-0.7-0.2-0.8-0.7l-1.3-5.4L9.7,7.6c-0.1-0.4,0-0.7,0.3-1C11,5.6,12.4,5,13.8,5 M13.8,4.7c-1.4,0-2.9,0.6-4,1.7
				C9.4,6.7,9.3,7.2,9.4,7.7l2.5,10.1l1.3,5.4c0.2,0.6,0.7,0.9,1.1,0.9c0.5,0,1.1-0.3,1.2-1l0.9-5.4l1.7-10.2
				c0.1-0.5-0.1-1.1-0.5-1.3l-0.7-0.5C15.9,5,14.8,4.7,13.8,4.7L13.8,4.7z"/>
		</g>
	</g>
	<g id="图层_4_1_">
	</g>
	<g>
		<path class="st5" d="M9.7,16.6c-0.5,0-1-0.4-1.1-0.9l-0.1-0.3l0.1-0.3c0.1-0.5,0.6-0.9,1.1-0.9c0.5,0,1,0.4,1.1,0.9l0.1,0.3
			l-0.1,0.3C10.6,16.2,10.2,16.6,9.7,16.6z"/>
		<path d="M9.7,14.8c0.3,0,0.5,0.2,0.5,0.4l0,0.2l0,0.2C10.2,15.8,10,16,9.7,16s-0.5-0.2-0.5-0.4l0-0.2l0-0.2
			C9.2,15,9.4,14.8,9.7,14.8 M9.7,13.7c-0.8,0-1.5,0.5-1.7,1.3c-0.7,0.1-1.2,0.3-1.2,0.5s0.5,0.4,1.2,0.5c0.2,0.7,0.9,1.3,1.7,1.3
			c0.8,0,1.5-0.5,1.7-1.3c0.7-0.1,1.2-0.3,1.2-0.5s-0.5-0.4-1.2-0.5C11.1,14.2,10.5,13.7,9.7,13.7L9.7,13.7z"/>
	</g>
	<g>
		<path class="st5" d="M16.1,14.5c0.3,0.6,1.4,1.1,2.4,1.2c0.1,0,0.2,0,0.4,0c0.9,0,2.2-0.3,2.5-0.9c-0.6-0.1-1.9-0.2-2.8-0.2
			c-0.9-0.1-1.7-0.1-2.3-0.1L16.1,14.5z"/>
		<path class="st5" d="M20.9,15.2c-0.6-0.1-1.4-0.2-2.3-0.3c-0.8-0.1-1.6-0.1-2.3-0.1c0.3,0.6,1.2,1.1,2.2,1.2
			C19.5,16.1,20.4,15.8,20.9,15.2z"/>
		<path class="st6" d="M21,15.1c-0.3-0.4-1.2-0.7-2.2-0.8c-0.1,0-0.3,0-0.4,0c-0.9,0-1.7,0.1-2.1,0.4c0.7,0.3,1.5,0.3,2.3,0.4
			C19.3,15.4,19.8,15.6,21,15.1L21,15.1z"/>
		<path d="M16.3,14.8c0.4,0.7,1.2,1.1,2.2,1.2c0.1,0,0.2,0,0.4,0c0.9,0,1.6-0.3,2-0.8c-0.6-0.1-1.4-0.2-2.3-0.3
			C17.7,14.8,16.9,14.8,16.3,14.8L16.3,14.8z"/>
	</g>
	<path class="st6" d="M17.3,5c-0.5-0.7-1.8-1.3-3.5-1.6c-0.2,0-0.4-0.1-0.6-0.1c-1.5-0.2-2.8-0.1-3.5,0.3c1,0.6,2.4,0.8,3.8,1.1
		C14.5,5.2,15.2,5.6,17.3,5L17.3,5z"/>
	<g>
		<rect x="6.9" y="11.2" transform="matrix(0.9123 -0.4096 0.4096 0.9123 -4.0048 4.7327)" class="st7" width="4.4" height="1"/>
		<path class="st7" d="M10.9,10.2l-4.3,1.9l0.5,1.1l4.3-1.9L10.9,10.2L10.9,10.2z"/>
		<path class="st7" d="M11,11.2c-1.3-0.1-2.6,0.5-3.7,1.7L7,12.2c0.9-1.7,2.2-2,3.7-1.7L11,11.2z"/>
	</g>
	<path d="M13.7,21.2c-0.5,0-0.9-0.2-1.2-0.6c-0.3-0.4-0.5-0.8-0.4-1.3c0.1-0.9,0.8-1.6,1.7-1.6l1.3,0.1c0.5,0,0.9,0.2,1.2,0.6
		c0.3,0.4,0.5,0.8,0.4,1.3c-0.1,0.9-0.8,1.6-1.7,1.6L13.7,21.2z"/>
	<path class="st8" d="M13.7,18.3L13.7,18.3c0.6,0.4,1,0.5,1.5,0.1c0.4,0,0.7,0.2,1,0.4c0.3,0.2,0.4,0.5,0.3,0.8
		c0,0.6-0.7,1.1-1.4,1.1H15l-1.4-0.1c-0.4,0-0.7-0.2-1-0.4c-0.3-0.2-0.4-0.5-0.3-0.8C12.4,18.8,13,18.3,13.7,18.3 M13.7,17.1
		c-1.5,0-2.7,1-2.8,2.2c-0.1,1.3,1.1,2.4,2.6,2.5c0.5-0.3,1.1-0.6,1.4,0.1c0.1,0,0.1,0,0.2,0c1.5,0,2.7-1,2.8-2.2
		c0.1-1.3-1.1-2.4-2.6-2.5c-0.5,0.5-0.9,0.5-1.4-0.1C13.8,17.1,13.8,17.1,13.7,17.1L13.7,17.1z"/>
	<g>
		<rect x="11.3" y="2.7" transform="matrix(0.1998 -0.9798 0.9798 0.1998 4.5417 15.74)" class="st9" width="1.3" height="4.7"/>
		<g>
			<path d="M9.9,4.2l4.2,0.9l-0.2,0.8L9.7,5.1L9.9,4.2 M10.1,3.6L9.6,5.9C4.8,7,16.3,7.2,16.3,7.2L16.8,5L10.1,3.6L10.1,3.6z"/>
		</g>
	</g>
	<path class="st10" d="M19.7,11.5l2,0.8c-0.3,0.3-1.3,0.3-2.3-0.1c-1.2-0.4-2-1-1.9-1.4c0.1-0.4,1.2-0.4,2.4,0s2,1,1.9,1.4
		L19.7,11.5z"/>
	<rect x="10.8" y="4.7" transform="matrix(0.9776 0.2105 -0.2105 0.9776 1.3225 -2.347)" class="st5" width="1.7" height="0.6"/>
</g>
</svg>
