<?xml version="1.0" encoding="utf-8"?>
<!-- Generator: Adobe Illustrator 24.1.2, SVG Export Plug-In . SVG Version: 6.00 Build 0)  -->
<svg version="1.1" xmlns="http://www.w3.org/2000/svg" xmlns:xlink="http://www.w3.org/1999/xlink" x="0px" y="0px"
	 viewBox="0 0 28 28" style="enable-background:new 0 0 28 28;" xml:space="preserve">
<style type="text/css">
	.st0{fill:#E86D8A;stroke:#C4375F;stroke-width:0.25;stroke-miterlimit:10;}
	.st1{fill:#ED8EA1;}
	.st2{fill:#FFFFFF;}
	.st3{fill:#666666;}
	.st4{fill:#C4375F;stroke:#E86D8A;stroke-width:0.25;stroke-miterlimit:10;}
</style>
<g id="图层_1">
	<path class="st0" d="M15.55,4.11l2.17,4.4c0.25,0.51,0.74,0.86,1.3,0.94l4.86,0.71c1.9,0.28,2.34,1.6,0.96,2.95l-3.52,3.43
		c-0.41,0.4-0.59,0.97-0.5,1.53l0.83,4.84c0.24,1.41-1.24,2.49-2.51,1.82l-4.35-2.28c-0.5-0.26-1.1-0.26-1.61,0l-4.35,2.28
		c-1.27,0.67-2.75-0.41-2.51-1.82l0.83-4.84c0.1-0.56-0.09-1.13-0.5-1.53l-3.52-3.43c-1.03-1-0.46-2.74,0.96-2.95l4.86-0.71
		c0.56-0.08,1.05-0.44,1.3-0.94l2.17-4.4C13.08,2.82,14.92,2.82,15.55,4.11z"/>
</g>
<g id="图层_2">
	<g>
		<path class="st1" d="M15.19,5.7l1.87,3.79c0.19,0.38,0.56,0.65,0.98,0.71l4.19,0.61c1.07,0.16,1.5,1.47,0.72,2.22l-3.03,2.95
			c-0.31,0.3-0.45,0.73-0.38,1.15l0.76,4.41c0.17,0.97-0.85,1.7-1.71,1.25l-3.96-2.08c-0.38-0.2-0.83-0.2-1.21,0l-3.74,1.97
			c-0.96,0.5-2.07-0.31-1.89-1.37l0.71-4.17c0.07-0.42-0.07-0.85-0.38-1.15l-3.03-2.95c-0.77-0.75-0.35-2.07,0.72-2.22L10,10.21
			c0.42-0.06,0.79-0.33,0.98-0.71l1.87-3.79C13.33,4.73,14.71,4.73,15.19,5.7z"/>
	</g>
</g>
<g id="图层_4">
	<circle class="st2" cx="11" cy="13" r="2"/>
	<circle class="st2" cx="17" cy="13" r="2"/>
	<path class="st3" d="M14,16c-0.79,0.1-1.55-0.27-2,0c-0.3,0.23-0.9,0.68-1,1c0.09,0.7,1.46,2,3,2c1,0,1.36-0.64,2-1
		c0.5-0.28,0.72-1.63,0.17-1.81C15.43,15.96,14.77,16.01,14,16z"/>
</g>
<g id="图层_5">
	<g>
		<path d="M16.03,14.05c-0.49,0-0.89-0.37-0.94-0.86c-0.02-0.25,0.05-0.5,0.21-0.69s0.39-0.31,0.64-0.33c0,0,0.01,0,0.01,0
			c0.57,0,0.97,0.37,1.01,0.85c0.02,0.25-0.05,0.5-0.21,0.69s-0.39,0.31-0.64,0.33L16.03,14.05z"/>
		<path class="st2" d="M16.03,12.29c0.42,0,0.77,0.32,0.81,0.74c0.02,0.22-0.05,0.43-0.19,0.6c-0.14,0.17-0.34,0.27-0.55,0.29
			c-0.03,0-0.05,0-0.08,0c-0.42,0-0.77-0.32-0.81-0.74c-0.02-0.22,0.05-0.43,0.19-0.6c0.14-0.17,0.34-0.27,0.55-0.29
			C15.98,12.29,16.01,12.29,16.03,12.29 M16.03,12.04c-0.03,0-0.06,0-0.1,0c-0.59,0.05-1.02,0.57-0.97,1.16
			c0.05,0.55,0.52,0.97,1.06,0.97c0.03,0,0.06,0,0.1,0c0.59-0.05,1.02-0.57,0.97-1.16C17.04,12.46,16.58,12.04,16.03,12.04
			L16.03,12.04z"/>
	</g>
	<g>
		<circle cx="11.03" cy="13.11" r="1.07"/>
	</g>
	<path class="st4" d="M14.01,16.01c-0.63,0.08-1.16,0.25-1.52,0.47c-0.24,0.19-0.4,0.41-0.49,0.67c0.07,0.56,1.27,0.93,2.67,0.84
		c0.48-0.03,1.34-0.49,1.32-0.63C15.9,16.59,15.03,16.02,14.01,16.01z"/>
</g>
<g id="图层_6">
	<g>
		<circle class="st2" cx="11.5" cy="13.5" r="0.5"/>
	</g>
	<g>
		<circle class="st2" cx="16.5" cy="13.5" r="0.25"/>
	</g>
</g>
</svg>
